HIERARCHY
ROOT Hips
{
	OFFSET 0.00000 0.00000 0.00000
	CHANNELS 6 Xposition Yposition Zposition Zrotation Yrotation Xrotation 
	JOINT LHipJoint
	{
		OFFSET 0 0 0
		CHANNELS 3 Zrotation Yrotation Xrotation
		JOINT LeftUpLeg
		{
			OFFSET 1.26600 -1.82114 0.91038
			CHANNELS 3 Zrotation Yrotation Xrotation
			JOINT LeftLeg
			{
				OFFSET 2.50076 -6.87080 0.00000
				CHANNELS 3 Zrotation Yrotation Xrotation
				JOINT LeftFoot
				{
					OFFSET 2.57364 -7.07102 0.00000
					CHANNELS 3 Zrotation Yrotation Xrotation
					JOINT LeftToeBase
					{
						OFFSET 0.13572 -0.37290 1.97004
						CHANNELS 3 Zrotation Yrotation Xrotation
						End Site
						{
							OFFSET 0.00000 -0.00000 1.01383
						}
					}
				}
			}
		}
	}
	JOINT RHipJoint
	{
		OFFSET 0 0 0
		CHANNELS 3 Zrotation Yrotation Xrotation
		JOINT RightUpLeg
		{
			OFFSET -1.20803 -1.82114 0.91038
			CHANNELS 3 Zrotation Yrotation Xrotation
			JOINT RightLeg
			{
				OFFSET -2.54916 -7.00377 0.00000
				CHANNELS 3 Zrotation Yrotation Xrotation
				JOINT RightFoot
				{
					OFFSET -2.56374 -7.04382 0.00000
					CHANNELS 3 Zrotation Yrotation Xrotation
					JOINT RightToeBase
					{
						OFFSET -0.23520 -0.64621 2.09921
						CHANNELS 3 Zrotation Yrotation Xrotation
						End Site
						{
							OFFSET -0.00000 -0.00000 1.10065
						}
					}
				}
			}
		}
	}
	JOINT LowerBack
	{
		OFFSET 0 0 0
		CHANNELS 3 Zrotation Yrotation Xrotation
		JOINT Spine
		{
			OFFSET 0.05492 2.10797 -0.12074
			CHANNELS 3 Zrotation Yrotation Xrotation
			JOINT Spine1
			{
				OFFSET 0.04577 2.11592 -0.04483
				CHANNELS 3 Zrotation Yrotation Xrotation
				JOINT Neck
				{
					OFFSET 0 0 0
					CHANNELS 3 Zrotation Yrotation Xrotation
					JOINT Neck1
					{
						OFFSET -0.10759 1.80167 0.15770
						CHANNELS 3 Zrotation Yrotation Xrotation
						JOINT Head
						{
							OFFSET 0.09237 1.77509 -0.40848
							CHANNELS 3 Zrotation Yrotation Xrotation
							End Site
							{
								OFFSET 0.03805 1.84093 -0.15754
							}
						}
					}
				}
				JOINT LeftShoulder
				{
					OFFSET 0 0 0
					CHANNELS 3 Zrotation Yrotation Xrotation
					JOINT LeftArm
					{
						OFFSET 3.42372 1.09575 -0.28209
						CHANNELS 3 Zrotation Yrotation Xrotation
						JOINT LeftForeArm
						{
							OFFSET 4.95681 -0.00000 0.00000
							CHANNELS 3 Zrotation Yrotation Xrotation
							JOINT LeftHand
							{
								OFFSET 3.40915 -0.00000 0.00000
								CHANNELS 3 Zrotation Yrotation Xrotation
								JOINT LeftFingerBase
								{
									OFFSET 0 0 0
									CHANNELS 3 Zrotation Yrotation Xrotation
									JOINT LeftHandIndex1
									{
										OFFSET 0.61640 -0.00000 0.00000
										CHANNELS 3 Zrotation Yrotation Xrotation
										End Site
										{
											OFFSET 0.49696 -0.00000 0.00000
										}
									}
								}
								JOINT LThumb
								{
									OFFSET 0 0 0
									CHANNELS 3 Zrotation Yrotation Xrotation
									End Site
									{
										OFFSET 0.50455 -0.00000 0.50455
									}
								}
							}
						}
					}
				}
				JOINT RightShoulder
				{
					OFFSET 0 0 0
					CHANNELS 3 Zrotation Yrotation Xrotation
					JOINT RightArm
					{
						OFFSET -3.24731 1.15872 -0.32221
						CHANNELS 3 Zrotation Yrotation Xrotation
						JOINT RightForeArm
						{
							OFFSET -5.35200 -0.00000 0.00000
							CHANNELS 3 Zrotation Yrotation Xrotation
							JOINT RightHand
							{
								OFFSET -3.43721 -0.00000 -0.00000
								CHANNELS 3 Zrotation Yrotation Xrotation
								JOINT RightFingerBase
								{
									OFFSET 0 0 0
									CHANNELS 3 Zrotation Yrotation Xrotation
									JOINT RightHandIndex1
									{
										OFFSET -0.72009 -0.00000 0.00000
										CHANNELS 3 Zrotation Yrotation Xrotation
										End Site
										{
											OFFSET -0.58056 -0.00000 0.00000
										}
									}
								}
								JOINT RThumb
								{
									OFFSET 0 0 0
									CHANNELS 3 Zrotation Yrotation Xrotation
									End Site
									{
										OFFSET -0.58942 -0.00000 0.58942
									}
								}
							}
						}
					}
				}
			}
		}
	}
}
MOTION
Frames: 8
Frame Time: .0083333
30.2177 17.5877 -9.4143 -359.1010 232.9670 -0.8722 0.0000 0.0000 0.0000 -18.0034 -4.7007 -8.6731 2.2960 9.4572 27.2362 0.0832 -13.2607 -10.3189 0.1212 2.2443 6.1813 0.0000 0.0000 0.0000 20.7185 -12.9300 -19.4360 -6.9605 -15.2985 48.7247 -0.9588 -7.7515 -22.8534 -0.4911 -4.4933 12.4688 2.6808 2.9782 6.0271 3.6415 4.0522 1.8684 1.9555 1.9570 -1.5237 -6.8117 2.0070 -14.1283 3.4807 2.0928 35.2411 2.8112 -0.1193 14.3066 0.0000 0.0000 0.0000 -88.3658 5.3271 18.5384 15.0308 -24.1890 -3.2386 -0.0000 0.0000 -2.6907 17.6575 20.5882 6.3870 -7.1250 0.0000 -0.0000 -10.9774 51.1692 -1.6856 0.0000 0.0000 0.0000 84.7364 3.8224 14.7600 -16.4967 26.1895 -3.8626 0.0000 -0.0000 -8.5795 -20.7984 11.4077 -4.2964 7.1250 -0.0000 -0.0000 4.4406 -17.8218 2.8771
30.2213 17.5870 -9.4245 -360.1270 233.6650 -0.1159 0.0000 0.0000 0.0000 -18.6820 -4.8462 -8.4334 2.2439 9.3567 26.9176 0.0394 -13.5654 -9.9981 0.0997 2.0362 5.6058 0.0000 0.0000 0.0000 19.8296 -11.9793 -19.1397 -7.0034 -15.3348 48.8873 -1.1259 -6.0244 -23.0680 -0.5605 -4.7952 13.3253 1.9559 3.0435 6.0786 3.4758 4.1123 1.8484 2.1793 1.9945 -1.6139 -6.8312 1.9724 -14.1313 3.6044 2.0387 35.0911 2.8556 -0.1115 14.2392 -0.0000 -0.0000 0.0000 -88.3149 5.2091 17.7665 14.9200 -24.0346 -3.1933 -0.0000 0.0000 -1.7479 17.4751 20.2939 6.2315 -7.1250 0.0000 -0.0000 -11.0485 50.8418 -1.6072 -0.0000 -0.0000 0.0000 84.8940 3.7733 14.9416 -16.8646 26.6789 -4.0264 0.0000 -0.0000 -8.7097 -21.0603 11.3976 -4.3516 7.1250 -0.0000 -0.0000 4.2566 -17.8102 2.7583
30.2249 17.5933 -9.4443 -360.4610 234.3870 0.1257 0.0000 0.0000 0.0000 -18.8370 -5.0047 -8.2062 2.1903 9.2517 26.5857 -0.0350 -14.0996 -9.4782 0.1418 2.4265 6.6858 0.0000 0.0000 0.0000 19.4553 -10.9747 -18.8612 -6.9969 -15.3293 48.8628 -1.2442 -4.3515 -23.0481 -0.4409 -4.2606 11.8111 1.4599 3.0064 5.9125 3.5660 4.0273 1.9266 2.5659 1.9537 -1.4799 -7.0980 1.9809 -14.1492 3.7306 2.1346 34.8444 2.9648 -0.0654 14.1180 0.0000 -0.0000 0.0000 -88.4460 4.9665 16.9623 14.8264 -23.9038 -3.1553 -0.0000 0.0000 -1.1068 17.2683 20.5038 6.2141 -7.1250 0.0000 -0.0000 -11.3259 51.0195 -1.6982 0.0000 -0.0000 0.0000 84.7514 3.9167 15.5540 -17.2116 27.1359 -4.1834 0.0000 -0.0000 -9.0504 -21.1564 11.3773 -4.3656 7.1250 -0.0000 -0.0000 4.1887 -17.8236 2.7128
30.2254 17.6032 -9.4660 -360.1580 235.1890 -0.1638 0.0000 0.0000 0.0000 -18.5786 -5.3943 -8.0098 2.1633 9.1982 26.4173 -0.1288 -14.6605 -8.7585 0.3220 3.6472 10.0862 0.0000 0.0000 0.0000 19.5223 -9.9107 -18.4842 -6.9341 -15.2761 48.6245 -1.3021 -2.8273 -22.7390 -0.2556 -3.2526 8.9828 1.3886 2.8082 5.7261 3.7235 3.7451 2.0181 2.8009 1.8099 -1.2869 -7.0518 2.1130 -14.1889 3.5601 2.4239 34.6012 2.9273 0.0639 14.0014 -0.0000 0.0000 0.0000 -88.5091 4.7418 16.2115 14.7408 -23.7838 -3.1207 -0.0000 0.0000 -0.9335 17.1705 20.8511 6.2763 -7.1250 0.0000 -0.0000 -11.5505 51.3530 -1.8281 -0.0000 0.0000 0.0000 84.6651 4.1514 16.6210 -17.5109 27.5264 -4.3208 0.0000 -0.0000 -9.7040 -21.5626 11.5813 -4.5360 7.1250 -0.0000 -0.0000 3.9104 -17.5709 2.5535
30.2260 17.6020 -9.4830 -359.7570 236.0890 -0.6412 0.0000 0.0000 0.0000 -18.2867 -5.7119 -7.8646 2.1724 9.2162 26.4741 -0.2045 -15.1978 -8.2618 0.4444 4.2773 11.8581 0.0000 0.0000 0.0000 19.6289 -9.0042 -17.9083 -6.8215 -15.1798 48.1961 -1.3742 -1.0604 -22.5632 -0.1895 -2.8036 7.7323 1.6444 2.6261 5.8575 3.7169 3.5223 1.9692 2.6595 1.6981 -1.3854 -6.7806 2.2658 -14.1601 3.4818 2.6137 34.5328 2.8753 0.1790 13.9561 -0.0000 0.0000 0.0000 -88.2158 4.8092 16.0054 14.6669 -23.6800 -3.0909 -0.0000 0.0000 -1.1469 17.3004 20.6812 6.2774 -7.1250 0.0000 -0.0000 -11.3601 51.2035 -1.7552 -0.0000 0.0000 0.0000 84.9432 4.0916 17.1002 -17.8746 27.9963 -4.4902 0.0000 -0.0000 -9.8559 -21.8708 11.6090 -4.6181 7.1250 -0.0000 -0.0000 3.6957 -17.5136 2.4173
30.2325 17.5929 -9.5011 -359.3290 237.0480 -1.0773 0.0000 0.0000 0.0000 -17.9742 -5.9778 -7.9328 2.2071 9.2847 26.6900 -0.2401 -15.6594 -8.2297 0.3224 3.6497 10.0931 0.0000 0.0000 0.0000 19.8311 -8.0498 -17.3484 -6.6766 -15.0534 47.6403 -1.4451 0.5291 -22.5755 -0.1657 -2.6222 7.2285 2.0598 2.5933 6.2999 3.5993 3.5440 1.6149 2.2752 1.7104 -1.9649 -6.6001 2.3047 -13.7821 3.6713 2.5140 34.5097 2.8964 0.1841 13.8641 -0.0000 0.0000 0.0000 -87.7617 5.1350 16.0444 14.4953 -23.4383 -3.0223 -0.0000 0.0000 -1.1104 17.6357 20.1363 6.2456 -7.1250 0.0000 -0.0000 -10.8362 50.7087 -1.5399 -0.0000 0.0000 0.0000 85.3873 3.4675 16.9357 -18.3709 28.6295 -4.7256 0.0000 -0.0000 -9.9220 -21.8358 11.6243 -4.6159 7.1250 -0.0000 -0.0000 3.7207 -17.5005 2.4348
30.2398 17.5967 -9.5224 -358.4510 238.0970 -1.8007 0.0000 0.0000 0.0000 -17.4068 -6.4478 -8.1135 2.2528 9.3739 26.9720 -0.2748 -16.1417 -8.2452 0.2250 3.0534 8.4273 0.0000 0.0000 0.0000 20.3361 -7.0657 -16.8511 -6.5098 -14.9048 46.9950 -1.4678 1.6167 -22.4439 -0.0707 -1.7156 4.7202 2.3376 2.4696 6.0457 3.7516 3.3742 1.7185 2.3045 1.6222 -1.7047 -6.2942 2.3218 -13.6950 3.4363 2.6043 33.9014 2.7478 0.2769 13.5812 -0.0000 -0.0000 0.0000 -87.7618 4.6307 15.4046 14.2983 -23.1596 -2.9444 -0.0000 0.0000 -0.6219 18.2332 20.5051 6.5825 -7.1250 0.0000 -0.0000 -10.3849 51.1810 -1.5959 -0.0000 -0.0000 0.0000 85.4493 3.6097 17.2827 -18.8621 29.2470 -4.9633 0.0000 -0.0000 -10.3904 -21.4799 11.4671 -4.4732 7.1250 -0.0000 -0.0000 3.9646 -17.6998 2.5778
30.2421 17.6006 -9.5435 -357.9420 239.1700 -2.2877 0.0000 0.0000 0.0000 -17.1415 -7.0647 -8.1049 2.2953 9.4559 27.2321 -0.3038 -16.5292 -8.2562 0.1960 2.8509 7.8639 0.0000 0.0000 0.0000 20.5337 -6.1813 -16.2812 -6.3353 -14.7456 46.3132 -1.5033 2.7177 -22.4608 -0.0163 -0.8245 2.2662 2.6410 2.4353 6.0584 3.6546 3.3518 1.6590 2.0349 1.6114 -1.7490 -5.6427 2.2950 -13.3075 3.1940 2.5073 33.1532 2.5014 0.3320 13.1943 -0.0000 -0.0000 0.0000 -87.2751 4.4142 15.5647 14.1327 -22.9240 -2.8796 -0.0000 0.0000 -0.3616 19.3169 21.5777 7.3455 -7.1250 0.0000 -0.0000 -9.7044 52.4592 -1.7954 -0.0000 -0.0000 0.0000 85.8656 3.3897 17.3816 -19.3347 29.8325 -5.1963 0.0000 -0.0000 -10.7885 -21.5156 11.2699 -4.4056 7.1250 -0.0000 -0.0000 3.9333 -17.9068 2.5394
